<mxfile host="app.diagrams.net" modified="2024-03-04T01:02:37.476Z" agent="Mozilla/5.0 (Windows NT 10.0; Win64; x64) AppleWebKit/537.36 (KHTML, like Gecko) Chrome/122.0.0.0 Safari/537.36 Edg/122.0.0.0" etag="3FvDyYKnaENsIX83glCw" version="24.0.1" type="github">
  <diagram id="C5RBs43oDa-KdzZeNtuy" name="Page-1">
    <mxGraphModel dx="1066" dy="1740" grid="1" gridSize="10" guides="1" tooltips="1" connect="1" arrows="1" fold="1" page="1" pageScale="1" pageWidth="827" pageHeight="1169" math="0" shadow="0">
      <root>
        <mxCell id="WIyWlLk6GJQsqaUBKTNV-0" />
        <mxCell id="WIyWlLk6GJQsqaUBKTNV-1" parent="WIyWlLk6GJQsqaUBKTNV-0" />
        <mxCell id="eIJSjQWltQtVxbCm_tcj-1" value="vs code&lt;div&gt;codebase&lt;/div&gt;" style="shape=hexagon;perimeter=hexagonPerimeter2;whiteSpace=wrap;html=1;fixedSize=1;" vertex="1" parent="WIyWlLk6GJQsqaUBKTNV-1">
          <mxGeometry x="10" y="354.4" width="90" height="34.976569821930646" as="geometry" />
        </mxCell>
        <mxCell id="eIJSjQWltQtVxbCm_tcj-2" value="" style="endArrow=classic;startArrow=classic;html=1;rounded=0;entryX=0.48;entryY=1.061;entryDx=0;entryDy=0;entryPerimeter=0;" edge="1" parent="WIyWlLk6GJQsqaUBKTNV-1" target="eIJSjQWltQtVxbCm_tcj-3">
          <mxGeometry width="50" height="50" relative="1" as="geometry">
            <mxPoint x="54.5" y="351.20556701030927" as="sourcePoint" />
            <mxPoint x="54.5" y="289.9965698219306" as="targetPoint" />
          </mxGeometry>
        </mxCell>
        <mxCell id="eIJSjQWltQtVxbCm_tcj-8" value="git push" style="edgeLabel;html=1;align=center;verticalAlign=middle;resizable=0;points=[];" vertex="1" connectable="0" parent="eIJSjQWltQtVxbCm_tcj-2">
          <mxGeometry x="-0.0497" y="1" relative="1" as="geometry">
            <mxPoint as="offset" />
          </mxGeometry>
        </mxCell>
        <mxCell id="eIJSjQWltQtVxbCm_tcj-3" value="" style="dashed=0;outlineConnect=0;html=1;align=center;labelPosition=center;verticalLabelPosition=bottom;verticalAlign=top;shape=mxgraph.webicons.github;gradientColor=#DFDEDE" vertex="1" parent="WIyWlLk6GJQsqaUBKTNV-1">
          <mxGeometry x="3.8" y="139.99998125585756" width="102.4" height="89.54001874414246" as="geometry" />
        </mxCell>
        <mxCell id="eIJSjQWltQtVxbCm_tcj-5" value="" style="endArrow=classic;startArrow=classic;html=1;rounded=0;" edge="1" parent="WIyWlLk6GJQsqaUBKTNV-1">
          <mxGeometry width="50" height="50" relative="1" as="geometry">
            <mxPoint x="106.19999999999999" y="184.27" as="sourcePoint" />
            <mxPoint x="236.2" y="184.27" as="targetPoint" />
          </mxGeometry>
        </mxCell>
        <mxCell id="eIJSjQWltQtVxbCm_tcj-7" value="github/jenkins&amp;nbsp;&lt;div&gt;handshake&lt;/div&gt;" style="edgeLabel;html=1;align=center;verticalAlign=middle;resizable=0;points=[];" vertex="1" connectable="0" parent="eIJSjQWltQtVxbCm_tcj-5">
          <mxGeometry x="-0.0954" y="-1" relative="1" as="geometry">
            <mxPoint as="offset" />
          </mxGeometry>
        </mxCell>
        <mxCell id="eIJSjQWltQtVxbCm_tcj-6" value="" style="sketch=0;outlineConnect=0;fontColor=#232F3E;gradientColor=none;fillColor=#7AA116;strokeColor=none;dashed=0;verticalLabelPosition=bottom;verticalAlign=top;align=center;html=1;fontSize=12;fontStyle=0;aspect=fixed;pointerEvents=1;shape=mxgraph.aws4.iot_analytics_pipeline;" vertex="1" parent="WIyWlLk6GJQsqaUBKTNV-1">
          <mxGeometry x="250" y="148.46" width="170" height="91.54" as="geometry" />
        </mxCell>
        <mxCell id="eIJSjQWltQtVxbCm_tcj-9" value="&lt;div&gt;maven build&lt;/div&gt;&lt;div&gt;terraform&lt;/div&gt;&lt;div&gt;ssh pipeline&lt;/div&gt;&lt;div&gt;IAM role&lt;/div&gt;" style="text;html=1;align=center;verticalAlign=middle;resizable=0;points=[];autosize=1;strokeColor=none;fillColor=none;" vertex="1" parent="WIyWlLk6GJQsqaUBKTNV-1">
          <mxGeometry x="285" y="222" width="90" height="70" as="geometry" />
        </mxCell>
        <mxCell id="eIJSjQWltQtVxbCm_tcj-10" value="" style="image;aspect=fixed;html=1;points=[];align=center;fontSize=12;image=img/lib/azure2/management_governance/Monitor.svg;" vertex="1" parent="WIyWlLk6GJQsqaUBKTNV-1">
          <mxGeometry x="186" y="30" width="64" height="64" as="geometry" />
        </mxCell>
        <mxCell id="eIJSjQWltQtVxbCm_tcj-11" value="" style="sketch=0;html=1;aspect=fixed;strokeColor=none;shadow=0;fillColor=#3B8DF1;verticalAlign=top;labelPosition=center;verticalLabelPosition=bottom;shape=mxgraph.gcp2.repository_primary" vertex="1" parent="WIyWlLk6GJQsqaUBKTNV-1">
          <mxGeometry x="382" y="30" width="63" height="63" as="geometry" />
        </mxCell>
        <mxCell id="eIJSjQWltQtVxbCm_tcj-12" value="" style="endArrow=classic;startArrow=classic;html=1;rounded=0;entryX=0.371;entryY=0.943;entryDx=0;entryDy=0;entryPerimeter=0;" edge="1" parent="WIyWlLk6GJQsqaUBKTNV-1" source="eIJSjQWltQtVxbCm_tcj-6" target="eIJSjQWltQtVxbCm_tcj-11">
          <mxGeometry width="50" height="50" relative="1" as="geometry">
            <mxPoint x="340" y="149.77" as="sourcePoint" />
            <mxPoint x="370" y="100" as="targetPoint" />
          </mxGeometry>
        </mxCell>
        <mxCell id="eIJSjQWltQtVxbCm_tcj-13" value="" style="endArrow=classic;startArrow=classic;html=1;rounded=0;entryX=0.938;entryY=0.984;entryDx=0;entryDy=0;entryPerimeter=0;" edge="1" parent="WIyWlLk6GJQsqaUBKTNV-1" target="eIJSjQWltQtVxbCm_tcj-10">
          <mxGeometry width="50" height="50" relative="1" as="geometry">
            <mxPoint x="270" y="149.77" as="sourcePoint" />
            <mxPoint x="320" y="99.77" as="targetPoint" />
          </mxGeometry>
        </mxCell>
        <mxCell id="eIJSjQWltQtVxbCm_tcj-14" value="SonarQube&lt;div&gt;code monitoring&lt;/div&gt;" style="text;html=1;align=center;verticalAlign=middle;resizable=0;points=[];autosize=1;strokeColor=none;fillColor=none;" vertex="1" parent="WIyWlLk6GJQsqaUBKTNV-1">
          <mxGeometry x="163" width="110" height="40" as="geometry" />
        </mxCell>
        <mxCell id="eIJSjQWltQtVxbCm_tcj-15" value="Nexus&lt;div&gt;code repository&lt;/div&gt;" style="text;html=1;align=center;verticalAlign=middle;resizable=0;points=[];autosize=1;strokeColor=none;fillColor=none;" vertex="1" parent="WIyWlLk6GJQsqaUBKTNV-1">
          <mxGeometry x="358.5" y="-3" width="110" height="40" as="geometry" />
        </mxCell>
        <mxCell id="eIJSjQWltQtVxbCm_tcj-20" value="Amazon ECR" style="sketch=0;outlineConnect=0;fontColor=#232F3E;gradientColor=none;strokeColor=#ffffff;fillColor=#232F3E;dashed=0;verticalLabelPosition=middle;verticalAlign=bottom;align=center;html=1;whiteSpace=wrap;fontSize=10;fontStyle=1;spacing=3;shape=mxgraph.aws4.productIcon;prIcon=mxgraph.aws4.ecr;" vertex="1" parent="WIyWlLk6GJQsqaUBKTNV-1">
          <mxGeometry x="570" y="148.45999999999998" width="80" height="100" as="geometry" />
        </mxCell>
        <mxCell id="eIJSjQWltQtVxbCm_tcj-23" value="" style="endArrow=classic;html=1;rounded=0;" edge="1" parent="WIyWlLk6GJQsqaUBKTNV-1">
          <mxGeometry width="50" height="50" relative="1" as="geometry">
            <mxPoint x="414" y="191" as="sourcePoint" />
            <mxPoint x="564" y="191" as="targetPoint" />
          </mxGeometry>
        </mxCell>
        <mxCell id="eIJSjQWltQtVxbCm_tcj-38" value="docker&lt;div&gt;image&lt;/div&gt;&lt;div&gt;build&lt;/div&gt;" style="edgeLabel;html=1;align=center;verticalAlign=middle;resizable=0;points=[];" vertex="1" connectable="0" parent="eIJSjQWltQtVxbCm_tcj-23">
          <mxGeometry x="-0.0933" relative="1" as="geometry">
            <mxPoint as="offset" />
          </mxGeometry>
        </mxCell>
        <mxCell id="eIJSjQWltQtVxbCm_tcj-24" value="" style="sketch=0;points=[[0,0,0],[0.25,0,0],[0.5,0,0],[0.75,0,0],[1,0,0],[0,1,0],[0.25,1,0],[0.5,1,0],[0.75,1,0],[1,1,0],[0,0.25,0],[0,0.5,0],[0,0.75,0],[1,0.25,0],[1,0.5,0],[1,0.75,0]];outlineConnect=0;fontColor=#232F3E;fillColor=#ED7100;strokeColor=#ffffff;dashed=0;verticalLabelPosition=bottom;verticalAlign=top;align=center;html=1;fontSize=12;fontStyle=0;aspect=fixed;shape=mxgraph.aws4.resourceIcon;resIcon=mxgraph.aws4.eks_cloud;" vertex="1" parent="WIyWlLk6GJQsqaUBKTNV-1">
          <mxGeometry x="670" y="20" width="68" height="68" as="geometry" />
        </mxCell>
        <mxCell id="eIJSjQWltQtVxbCm_tcj-25" value="" style="endArrow=classic;html=1;rounded=0;entryX=0.5;entryY=1;entryDx=0;entryDy=0;entryPerimeter=0;" edge="1" parent="WIyWlLk6GJQsqaUBKTNV-1" target="eIJSjQWltQtVxbCm_tcj-24">
          <mxGeometry width="50" height="50" relative="1" as="geometry">
            <mxPoint x="630" y="148.46" as="sourcePoint" />
            <mxPoint x="680" y="98.46000000000001" as="targetPoint" />
          </mxGeometry>
        </mxCell>
        <mxCell id="eIJSjQWltQtVxbCm_tcj-39" value="docker&lt;div&gt;container&lt;/div&gt;&lt;div&gt;run&lt;/div&gt;" style="edgeLabel;html=1;align=center;verticalAlign=middle;resizable=0;points=[];" vertex="1" connectable="0" parent="eIJSjQWltQtVxbCm_tcj-25">
          <mxGeometry x="-0.0396" y="-1" relative="1" as="geometry">
            <mxPoint as="offset" />
          </mxGeometry>
        </mxCell>
        <mxCell id="eIJSjQWltQtVxbCm_tcj-26" value="EKS Cluster" style="text;html=1;align=center;verticalAlign=middle;resizable=0;points=[];autosize=1;strokeColor=none;fillColor=none;" vertex="1" parent="WIyWlLk6GJQsqaUBKTNV-1">
          <mxGeometry x="659" y="-3" width="90" height="30" as="geometry" />
        </mxCell>
        <mxCell id="eIJSjQWltQtVxbCm_tcj-27" value="" style="outlineConnect=0;dashed=0;verticalLabelPosition=bottom;verticalAlign=top;align=center;html=1;shape=mxgraph.aws3.route_53;fillColor=#F58536;gradientColor=none;" vertex="1" parent="WIyWlLk6GJQsqaUBKTNV-1">
          <mxGeometry x="770" y="148.45999999999998" width="70.5" height="85.5" as="geometry" />
        </mxCell>
        <mxCell id="eIJSjQWltQtVxbCm_tcj-28" value="" style="endArrow=classic;html=1;rounded=0;" edge="1" parent="WIyWlLk6GJQsqaUBKTNV-1" target="eIJSjQWltQtVxbCm_tcj-27">
          <mxGeometry width="50" height="50" relative="1" as="geometry">
            <mxPoint x="738" y="88" as="sourcePoint" />
            <mxPoint x="780" y="140" as="targetPoint" />
          </mxGeometry>
        </mxCell>
        <mxCell id="eIJSjQWltQtVxbCm_tcj-29" value="Route 53" style="text;html=1;align=center;verticalAlign=middle;resizable=0;points=[];autosize=1;strokeColor=none;fillColor=none;" vertex="1" parent="WIyWlLk6GJQsqaUBKTNV-1">
          <mxGeometry x="780" y="118.45999999999998" width="70" height="30" as="geometry" />
        </mxCell>
        <mxCell id="eIJSjQWltQtVxbCm_tcj-31" value="" style="endArrow=classic;html=1;rounded=0;" edge="1" parent="WIyWlLk6GJQsqaUBKTNV-1">
          <mxGeometry width="50" height="50" relative="1" as="geometry">
            <mxPoint x="804.75" y="248.46" as="sourcePoint" />
            <mxPoint x="804.75" y="318.46" as="targetPoint" />
          </mxGeometry>
        </mxCell>
        <mxCell id="eIJSjQWltQtVxbCm_tcj-41" value="domain name" style="edgeLabel;html=1;align=center;verticalAlign=middle;resizable=0;points=[];" vertex="1" connectable="0" parent="eIJSjQWltQtVxbCm_tcj-31">
          <mxGeometry x="-0.156" y="1" relative="1" as="geometry">
            <mxPoint as="offset" />
          </mxGeometry>
        </mxCell>
        <mxCell id="eIJSjQWltQtVxbCm_tcj-32" value="End User" style="text;html=1;align=center;verticalAlign=middle;resizable=0;points=[];autosize=1;strokeColor=none;fillColor=none;" vertex="1" parent="WIyWlLk6GJQsqaUBKTNV-1">
          <mxGeometry x="767" y="377" width="70" height="30" as="geometry" />
        </mxCell>
        <mxCell id="eIJSjQWltQtVxbCm_tcj-33" value="" style="verticalLabelPosition=bottom;html=1;verticalAlign=top;align=center;strokeColor=none;fillColor=#00BEF2;shape=mxgraph.azure.user;" vertex="1" parent="WIyWlLk6GJQsqaUBKTNV-1">
          <mxGeometry x="778" y="320" width="47.5" height="50" as="geometry" />
        </mxCell>
        <mxCell id="eIJSjQWltQtVxbCm_tcj-34" value="" style="aspect=fixed;sketch=0;html=1;dashed=0;whitespace=wrap;fillColor=#2875E2;strokeColor=#ffffff;points=[[0.005,0.63,0],[0.1,0.2,0],[0.9,0.2,0],[0.5,0,0],[0.995,0.63,0],[0.72,0.99,0],[0.5,1,0],[0.28,0.99,0]];shape=mxgraph.kubernetes.icon2;prIcon=pod" vertex="1" parent="WIyWlLk6GJQsqaUBKTNV-1">
          <mxGeometry x="679" y="27" width="23.96" height="23" as="geometry" />
        </mxCell>
        <mxCell id="eIJSjQWltQtVxbCm_tcj-35" value="pods" style="aspect=fixed;sketch=0;html=1;dashed=0;whitespace=wrap;fillColor=#2875E2;strokeColor=#ffffff;points=[[0.005,0.63,0],[0.1,0.2,0],[0.9,0.2,0],[0.5,0,0],[0.995,0.63,0],[0.72,0.99,0],[0.5,1,0],[0.28,0.99,0]];shape=mxgraph.kubernetes.icon2;prIcon=pod" vertex="1" parent="WIyWlLk6GJQsqaUBKTNV-1">
          <mxGeometry x="710" y="50.5" width="23.96" height="23" as="geometry" />
        </mxCell>
        <mxCell id="eIJSjQWltQtVxbCm_tcj-36" value="" style="aspect=fixed;sketch=0;html=1;dashed=0;whitespace=wrap;fillColor=#2875E2;strokeColor=#ffffff;points=[[0.005,0.63,0],[0.1,0.2,0],[0.9,0.2,0],[0.5,0,0],[0.995,0.63,0],[0.72,0.99,0],[0.5,1,0],[0.28,0.99,0]];shape=mxgraph.kubernetes.icon2;prIcon=pod" vertex="1" parent="WIyWlLk6GJQsqaUBKTNV-1">
          <mxGeometry x="710" y="27" width="23.96" height="23" as="geometry" />
        </mxCell>
        <mxCell id="eIJSjQWltQtVxbCm_tcj-37" value="" style="aspect=fixed;sketch=0;html=1;dashed=0;whitespace=wrap;fillColor=#2875E2;strokeColor=#ffffff;points=[[0.005,0.63,0],[0.1,0.2,0],[0.9,0.2,0],[0.5,0,0],[0.995,0.63,0],[0.72,0.99,0],[0.5,1,0],[0.28,0.99,0]];shape=mxgraph.kubernetes.icon2;prIcon=pod" vertex="1" parent="WIyWlLk6GJQsqaUBKTNV-1">
          <mxGeometry x="679" y="50.5" width="23.96" height="23" as="geometry" />
        </mxCell>
        <mxCell id="eIJSjQWltQtVxbCm_tcj-40" value="&lt;span style=&quot;color: rgb(35, 47, 62);&quot;&gt;Jenkins CI/CD&lt;/span&gt;" style="text;html=1;align=center;verticalAlign=middle;resizable=0;points=[];autosize=1;strokeColor=none;fillColor=none;" vertex="1" parent="WIyWlLk6GJQsqaUBKTNV-1">
          <mxGeometry x="285" y="190" width="100" height="30" as="geometry" />
        </mxCell>
      </root>
    </mxGraphModel>
  </diagram>
</mxfile>
